<svg xmlns="http://www.w3.org/2000/svg" viewBox="0 0 32 32" width="32" height="32">
<path fill="#25D366" d="M16.004 2.667c-7.364 0-13.333 5.968-13.333 13.333 0 2.353.615 4.647 1.782 6.666L2.667 29.333l6.836-1.792a13.27 13.27 0 0 0 6.5 1.726h.006c7.364 0 13.333-5.968 13.333-13.333S23.368 2.667 16.004 2.667z"/>
<path fill="#FFFFFF" d="M16.005 26.011h-.005a11.02 11.02 0 0 1-5.61-1.537l-.402-.239-4.058 1.064 1.083-3.957-.262-.406a11.01 11.01 0 0 1-1.688-5.876c0-6.086 4.954-11.038 11.045-11.038 2.951 0 5.724 1.15 7.81 3.238a10.97 10.97 0 0 1 3.233 7.807c-.002 6.086-4.956 11.038-11.046 11.038z"/>
<path fill="#25D366" d="M21.61 18.486c-.307-.154-1.816-.897-2.098-.999-.281-.102-.486-.154-.691.154-.204.307-.793.998-.972 1.203-.179.205-.358.23-.665.077-.307-.154-1.296-.478-2.469-1.523-.913-.814-1.529-1.82-1.708-2.127-.179-.307-.019-.473.135-.626.138-.138.307-.358.46-.538.154-.179.204-.307.307-.512.102-.205.051-.384-.026-.538-.077-.154-.691-1.665-.947-2.281-.25-.6-.503-.519-.691-.528l-.588-.011c-.205 0-.538.077-.819.384-.281.307-1.075 1.05-1.075 2.562s1.101 2.972 1.254 3.176c.154.205 2.166 3.31 5.249 4.64.733.317 1.305.506 1.751.647.735.234 1.404.201 1.933.122.59-.088 1.816-.743 2.072-1.46.256-.717.256-1.332.179-1.46-.076-.128-.281-.205-.588-.359z"/>
</svg>
